# xmcd
#
# Track frame offsets:
#	150
#	14061
#	25019
#	34697
#	44744
#	53278
#	62222
#	75702
#	92917
#	106668
#	119271
#	130502
#	145495
#	156583
#
# Disc length: 2200 seconds
#
# Revision: 2
# Processed by: cddbd v1.5.2PL0 Copyright (c) Steve Scherf et al.
# Submitted via: EasyCDDAExtractor 15.3.0.1
#
DISCID=b908960e
DTITLE=Johnny Rebel - For Segregationists Only
DYEAR=1900
DGENRE=Country
TTITLE0=Some Niggers Never Die
TTITLE1=Stay Away From Dixie
TTITLE2=Nigger Hatin' Me
TTITLE3=Who Likes A Nigger?
TTITLE4=Nigger, Nigger
TTITLE5=Move Them Niggers North
TTITLE6=Kajun Ku Klux Klan
TTITLE7=Lookin' For A Handout
TTITLE8=Federal Aid 
TTITLE9=Keep A Workin' Big Jim
TTITLE10=Coon Town
TTITLE11=Still Lookin' For A Handout
TTITLE12=Cowboys And Niggers (James Crow)
TTITLE13=Johnny Rebel (Colonel Lou)
EXTD=
EXTT0=
EXTT1=
EXTT2=
EXTT3=
EXTT4=
EXTT5=
EXTT6=
EXTT7=
EXTT8=
EXTT9=
EXTT10=
EXTT11=
EXTT12=
EXTT13=
PLAYORDER=
